<?xml version="1.0" standalone="no"?>
<!DOCTYPE svg PUBLIC "-//W3C//DTD SVG 1.1//EN" "http://www.w3.org/Graphics/SVG/1.1/DTD/svg11.dtd" >
<svg xmlns="http://www.w3.org/2000/svg">
<metadata>
This is a custom SVG webfont generated by Font Squirrel.
Copyright   : 2001 Floodfonts designed by Felix Braden
</metadata>
<defs>
<font id="webfont9kPOBcXe" horiz-adv-x="983" >
<font-face units-per-em="2048" ascent="1638" descent="-410" />
<missing-glyph horiz-adv-x="317" />
<glyph unicode=" "  horiz-adv-x="317" />
<glyph unicode="&#x09;" horiz-adv-x="317" />
<glyph unicode="&#xa0;" horiz-adv-x="317" />
<glyph unicode="!" horiz-adv-x="538" d="M123 8v131h268l-63 -188zM201 328v1032l178 59v-651l-135 -440h-43z" />
<glyph unicode="&#x22;" horiz-adv-x="712" d="M174 856v463h156v-105l-121 -358h-35zM432 856v463h156v-105l-121 -358h-35z" />
<glyph unicode="#" horiz-adv-x="1269" d="M217 455l12 77h164l51 334h-178l13 78h176l39 395h122l-38 -395h253l80 395h121l-78 -395h127l-12 -78h-127l-49 -334h139l-12 -77h-137l-54 -492h-124l53 492h-252l-92 -492h-127l94 492h-164zM518 532h252l49 334h-252z" />
<glyph unicode="$" horiz-adv-x="1142" d="M217 874l123 390l238 75v72l94 29v-101h104l131 -127v-227h-33l-75 221h-385v-420h348l192 -184v-446l-178 -172h-104v-76l-94 -29v105h-29l-324 104v289h33l84 -244h434v475l-407 121z" />
<glyph unicode="%" horiz-adv-x="1542" d="M217 717v514l344 115l113 -115v-514l-342 -115zM342 739h207v473h-207v-473zM365 -37l718 1376h136l-736 -1376h-118zM897 68v514l344 114l113 -114v-514l-342 -115zM1022 90h207v475h-207v-475z" />
<glyph unicode="&#x26;" horiz-adv-x="1433" d="M289 545l207 207l-121 120v355l370 123h162l123 -123v-287h-33l-88 254h-356v-465l-35 -125v-465h379v531l-131 43v32h410v-32l-101 -33v-260l-104 -340l-238 -80h-278z" />
<glyph unicode="'" horiz-adv-x="538" d="M203 856v463h155v-105l-120 -358h-35z" />
<glyph unicode="(" horiz-adv-x="481" d="M123 311v758l121 365l114 39v-33l-86 -88v-1491l86 -88v-33l-114 37z" />
<glyph unicode=")" horiz-adv-x="481" d="M123 -227l88 88v1491l-88 88v33l115 -39l120 -365v-758l-120 -534l-115 -37v33z" />
<glyph unicode="*" horiz-adv-x="698" d="M16 1110v84l271 -20l-217 176l59 57l199 -219l-17 285h74l-16 -285l198 219l60 -57l-217 -176l270 20v-84l-270 20l217 -176l-60 -51l-198 207l16 -272h-74l17 280l-199 -215l-59 51l217 176z" />
<glyph unicode="+" horiz-adv-x="1060" d="M35 602v31l313 106h117v451h29l108 -326v-125h428v-30l-325 -107h-103v-463h-33l-104 314v149h-430z" />
<glyph unicode="," horiz-adv-x="538" d="M143 8v131h269l-133 -393h-31v234z" />
<glyph unicode="-" horiz-adv-x="720" d="M35 602v31l313 106h342v-30l-328 -107h-327z" />
<glyph unicode="." horiz-adv-x="538" d="M156 8v131h266l-64 -188z" />
<glyph unicode="/" horiz-adv-x="485" d="M35 -449l323 1897h95l-322 -1897h-96z" />
<glyph unicode="0" d="M129 178v715l121 364l239 80h185l178 -178v-670l-121 -380l-186 -109h-238zM307 150h367v1054h-367v-1054z" />
<glyph unicode="1" d="M242 1219v30l348 115v-1280l158 -51v-33h-500v33l164 53v1133h-170z" />
<glyph unicode="2" d="M100 0v33l504 981v180h-307l-86 -254h-33v301l326 109h94l180 -181v-184l-342 -696l-127 -125v-27h387l115 340h37v-477h-748z" />
<glyph unicode="3" d="M125 131v238h31l77 -230h410v543h-324v35l277 88v389h-311l-86 -254h-31v301l326 109h100l180 -181v-297l-123 -120l209 -207l-141 -465l-240 -80h-223z" />
<glyph unicode="4" d="M45 483v33l467 723l166 127l27 -18v-832h210v-98h-210v-340l135 -45v-33h-455v33l141 45v340h-282zM193 516h333v549z" />
<glyph unicode="5" d="M72 1284v33h729v-311h-33l-61 188h-322v-461l227 74l265 -262l-142 -465l-239 -80h-224l-131 131v238h31l78 -230h409v543h-454v559z" />
<glyph unicode="6" d="M141 444v785l322 108h196l121 -120v-289h-32l-84 254h-336v-406l288 88l275 -274l-154 -510l-239 -80h-219zM328 139h334v582h-334v-582z" />
<glyph unicode="7" d="M154 956v361h729l-357 -1094v-223h-209l416 1163h-479l-68 -207h-32z" />
<glyph unicode="8" d="M78 545l209 207l-121 120v355l369 123h102l180 -181v-297l-123 -120l209 -207l-141 -465l-240 -80h-278zM295 139h391v531h-391v-531zM344 729l293 94v371h-293v-465z" />
<glyph unicode="9" d="M109 840l120 415l285 95h125l180 -181v-1060l-321 -109h-166l-123 121v272h33l86 -256h315v512l-260 -84zM315 696h328v498h-328v-498z" />
<glyph unicode=":" horiz-adv-x="538" d="M143 8v131h269l-64 -188zM143 850v131h269l-64 -186z" />
<glyph unicode=";" horiz-adv-x="538" d="M143 8v131h269l-133 -393h-31v234zM156 850v131h266l-64 -186z" />
<glyph unicode="&#x3c;" horiz-adv-x="901" d="M35 621v108l491 244l338 49l4 -33l-630 -315l632 -312l-4 -32l-340 47z" />
<glyph unicode="=" horiz-adv-x="929" d="M35 440v33l313 107h551v-31l-328 -109h-536zM35 758v33l313 106h551v-31l-328 -108h-536z" />
<glyph unicode="&#x3e;" horiz-adv-x="901" d="M35 362l633 312l-631 315l4 33l338 -49l489 -244l2 -108l-493 -244l-338 -47z" />
<glyph unicode="?" horiz-adv-x="815" d="M78 997v301l325 109h160l180 -178v-275l-239 -237l-119 -389h-43v487l221 72v364h-366l-86 -254h-33zM264 8v131h266l-63 -188z" />
<glyph unicode="@" horiz-adv-x="1685" d="M156 0v1307l237 79h1061l105 -104v-1167l-336 -115h-238v59l-326 -108l-163 164v473l131 393h522v-866h289l-2 1167h-1157v-1042l-80 -240h-43zM659 115h326v811l-326 -109v-702z" />
<glyph unicode="A" horiz-adv-x="1200" d="M0 0v33l166 55l448 1335h19l436 -1347l131 -43v-33h-442v33l123 41l-103 319h-391l-100 -309l155 -51v-33h-442zM416 481h334l-113 344v289h-23z" />
<glyph unicode="B" horiz-adv-x="1040" d="M51 0v33l135 45v1231l-135 45v32h643l162 -161v-383l-90 -84l172 -170v-96l-123 -383l-326 -109h-438zM365 137h393v576h-393v-576zM365 801h329v481h-329v-481z" />
<glyph unicode="C" horiz-adv-x="1019" d="M164 168v780l121 365l239 80h260l134 -131v-232h-33l-78 230h-465v-1121h469l86 254h31v-297l-326 -108h-260z" />
<glyph unicode="D" horiz-adv-x="1163" d="M51 0v33l135 45v1231l-135 45v32h797l178 -180v-714l-121 -383l-325 -109h-529zM365 137h483v1145h-483v-1145z" />
<glyph unicode="E" horiz-adv-x="899" d="M51 0v33l135 45v1231l-135 45v32h641l125 -124v-162h-33l-59 182h-360v-481h245l47 139h33v-362h-33l-45 135h-247v-576h333l86 256h33v-284l-325 -109h-441z" />
<glyph unicode="F" horiz-adv-x="901" d="M51 0v33l142 45v1231l-136 45v32h658l125 -124v-162h-33l-59 182h-377v-502h247l46 140h32v-363h-32l-46 135h-247v-614l135 -45v-33h-455z" />
<glyph unicode="G" horiz-adv-x="1153" d="M164 168v780l121 365l239 80h305l132 -131v-232h-33l-78 230h-508v-1121h451v584l-129 43v33h407v-33l-100 -33v-747h-33l-39 110l-330 -108h-227z" />
<glyph unicode="H" horiz-adv-x="1187" d="M51 0v33l142 45v1231l-136 45v32h455v-32l-141 -45v-508h446v508l-135 45v32h455v-32l-142 -45v-1231l135 -45v-33h-454v33l141 45v635h-446v-635l135 -45v-33h-455z" />
<glyph unicode="I" horiz-adv-x="557" d="M51 0v33l142 45v1229l-142 47v32h455v-32l-135 -45v-1231l135 -45v-33h-455z" />
<glyph unicode="J" horiz-adv-x="567" d="M-31 -203h228v1512l-136 45v32h455v-32l-141 -47v-1198l-121 -365l-199 -66l-86 86v33z" />
<glyph unicode="K" horiz-adv-x="1167" d="M51 0v33l142 45v1231l-136 45v32h455v-32l-141 -45v-523h24l15 45l405 488l-102 35v32h350v-32l-121 -39l-428 -488l520 -749l133 -45v-33h-460v33l102 35l-385 575l-27 80l-26 -2v-643l135 -45v-33h-455z" />
<glyph unicode="L" horiz-adv-x="843" d="M51 0v33l135 45v1231l-135 45v32h455v-32l-141 -45v-1172h307l114 340h37v-368l-325 -109h-447z" />
<glyph unicode="M" horiz-adv-x="1380" d="M51 0v33l142 45v1231l-136 45v32h308l270 -843v-271h20l363 1114h311v-32l-141 -45v-1231l135 -45v-33h-455v33l142 45v637l75 502l-22 8l-395 -1262h-31l-240 762l-71 496h-25v-1143l135 -45v-33h-385z" />
<glyph unicode="N" horiz-adv-x="1167" d="M51 0v33l142 45v1231l-136 45v32h353l233 -468l197 -592h24v983l-133 45v32h385v-32l-141 -47v-1356h-86l-404 794l-159 476h-25v-1143l135 -45v-33h-385z" />
<glyph unicode="O" horiz-adv-x="1210" d="M164 168v780l121 365l239 80h371l178 -179v-735l-121 -383l-325 -108h-285zM342 137h553v1123h-553v-1123z" />
<glyph unicode="P" horiz-adv-x="1015" d="M51 0v33l135 43v1233l-135 45v32h701l161 -161v-457l-139 -131h-409v-557l141 -47v-33h-455zM365 727h370v555h-370v-555z" />
<glyph unicode="Q" horiz-adv-x="1210" d="M164 168v780l121 365l239 80h371l178 -179v-735l-121 -383l-290 -96h382v-33l-110 -110l-387 131h-205zM342 137h553v1123h-553v-1123z" />
<glyph unicode="R" horiz-adv-x="1069" d="M51 0v33l135 43v1233l-135 45v32h701l161 -161v-348l-190 -187l215 -614l131 -43v-33h-309l-146 475v238h-249v-633l141 -47v-33h-455zM365 801h370v481h-370v-481z" />
<glyph unicode="S" horiz-adv-x="956" d="M113 915l123 404l239 80h201l133 -133v-236h-33l-78 230h-387v-439h330l193 -190v-469l-179 -178h-209l-325 108v301h33l86 -256h415v500l-389 125z" />
<glyph unicode="T" horiz-adv-x="933" d="M82 924v462h508l282 -94v-368h-36l-121 358h-142v-1204l136 -45v-33h-455v33l141 45v1204h-157l-119 -358h-37z" />
<glyph unicode="U" horiz-adv-x="1189" d="M51 1354v32h455v-32l-141 -45v-1172h477v1172l-135 45v32h452v-32l-139 -45v-830l-121 -383l-326 -108h-208l-179 180v1141z" />
<glyph unicode="V" horiz-adv-x="1189" d="M0 1354v32h442v-2v-30l-123 -41l246 -760v-287h23l327 1045l-127 43v32h402v-32l-164 -54l-434 -1337h-25l-436 1346z" />
<glyph unicode="W" horiz-adv-x="1765" d="M0 1354v32h442v-32l-123 -41l244 -758v-291h23l241 766l-90 279l-131 45v32h443v-32l-123 -41l243 -758v-289h23l293 1045l-129 43v32h409v-32l-163 -54l-404 -1337h-24l-232 715v287h-22l-328 -1002h-25l-436 1346z" />
<glyph unicode="X" horiz-adv-x="1107" d="M0 0v33l166 53l309 625l-276 598l-136 45v32h455v-32l-127 -41l144 -324v-145l22 -2l236 469l-125 43v32h407v-32l-164 -54l-280 -528l323 -688l154 -51v-33h-453v33l103 33l-176 405v178h-23l-262 -573l129 -43v-33h-426z" />
<glyph unicode="Y" horiz-adv-x="1046" d="M0 1354v32h444v-32l-120 -39l170 -389v-170h22l260 553l-133 45v32h404v-32l-152 -49l-281 -584v-643l134 -45v-33h-455v33l141 45v581l-293 648z" />
<glyph unicode="Z" horiz-adv-x="913" d="M61 0v33l557 1249h-403l-86 -260h-33v364h408l311 -104l-444 -997l-121 -121v-27h473l113 340h36v-368l-325 -109h-486z" />
<glyph unicode="[" horiz-adv-x="520" d="M123 -137v1476h274v-32l-133 -45v-1321l133 -45v-33h-274z" />
<glyph unicode="\" horiz-adv-x="507" d="M57 1448h95l323 -1897h-96z" />
<glyph unicode="]" horiz-adv-x="520" d="M123 -104l133 45v1321l-133 45v32h274v-1476h-274v33z" />
<glyph unicode="^" horiz-adv-x="899" d="M156 659v234l243 493l109 -2l244 -489v-236h-39l-260 525l-258 -525h-39z" />
<glyph unicode="_" horiz-adv-x="839" d="M-315 -188l313 106h1169v-31l-325 -106h-1157v31z" />
<glyph unicode="`" horiz-adv-x="899" d="M225 1307v32h299l324 -108v-27h-311z" />
<glyph unicode="a" horiz-adv-x="892" d="M41 115l129 391h377v383h-152l-43 -129l-119 41v125l314 104l164 -164v-790l131 -43v-33h-295v66l-344 -115zM203 115h344v344l-344 -115v-229z" />
<glyph unicode="b" horiz-adv-x="978" d="M31 1339v33l295 98v-548l325 108l164 -164v-751l-489 -164l-164 164v1224h-131zM326 115h325v751h-325v-751z" />
<glyph unicode="c" horiz-adv-x="929" d="M164 115v751l489 164l164 -164l-43 -129l-117 39v90h-329v-751h329l43 129l117 -39v-90l-489 -164z" />
<glyph unicode="d" horiz-adv-x="978" d="M143 115v473l131 393h359v358h-129v33l293 98v-1394l131 -43v-33h-295v59l-326 -108zM307 115h326v811l-326 -109v-702z" />
<glyph unicode="e" horiz-adv-x="899" d="M164 115v751l489 164l164 -164l-131 -393h-358v-358h393v-33l-393 -131zM328 528l325 109v229h-325v-338z" />
<glyph unicode="f" horiz-adv-x="559" d="M51 0v33l131 43v823h-131v33l131 43v407l267 88l90 -90v-30h-193v-375l131 -43v-33h-131v-823l131 -43v-33h-426z" />
<glyph unicode="g" horiz-adv-x="960" d="M143 115v473l131 393h523v-950l-131 -393h-424v30l391 133v258l-326 -108zM307 115h326v811l-326 -109v-702z" />
<glyph unicode="h" horiz-adv-x="1017" d="M51 0v33l131 43v1263h-131v33l295 98v-548l326 108l164 -164v-790l131 -43v-33h-424v33l129 43v790h-326v-790l131 -43v-33h-426z" />
<glyph unicode="i" horiz-adv-x="528" d="M51 0v33l131 43v823h-131v33l295 98v-954l131 -43v-33h-426zM182 1231v119h215l-57 -170z" />
<glyph unicode="j" horiz-adv-x="499" d="M-20 -311h192v1210h-131v33l295 98v-1374l-266 -90l-90 92v31zM172 1233v117h215l-57 -170z" />
<glyph unicode="k" horiz-adv-x="991" d="M51 0v33l131 43v1263h-131v33l295 98v-792h217l78 233l-109 37v33h336v-33l-127 -43l-88 -262l197 -567l131 -43v-33h-422v33l123 41l-180 520h-156v-518l131 -43v-33h-426z" />
<glyph unicode="l" horiz-adv-x="528" d="M51 0v33l131 43v1265h-131v31l295 101v-1397l131 -43v-33h-426z" />
<glyph unicode="m" horiz-adv-x="1462" d="M51 0v33l131 43v823h-131v33l295 98v-108l328 108l110 -110l334 110l162 -164v-790l131 -43v-33h-424v33l131 43v790h-305v-790l131 -43v-33h-426v33l131 43v790h-303v-790l131 -43v-33h-426z" />
<glyph unicode="n" horiz-adv-x="1017" d="M51 0v33l131 43v823h-131v33l295 98v-108l328 108l162 -164v-790l131 -43v-33h-424v33l131 43v790h-328v-790l131 -43v-33h-426z" />
<glyph unicode="o" horiz-adv-x="980" d="M164 115v751l491 164l162 -164v-751l-489 -164zM328 115h327v751h-327v-751z" />
<glyph unicode="p" horiz-adv-x="978" d="M51 -401l131 45v1255h-131v33l295 98v-108l326 108l164 -164v-473l-131 -393h-359v-356l131 -45v-33h-426v33zM346 55l326 109v702h-326v-811z" />
<glyph unicode="q" horiz-adv-x="1009" d="M164 115v751l489 164l164 -164v-1222l131 -45v-33h-424v33l129 45v415l-325 -108zM328 115h325v751h-325v-751z" />
<glyph unicode="r" horiz-adv-x="790" d="M51 0v33l131 43v831h-131v33l295 98v-92l252 84l141 -139l-51 -156l-113 39v117h-229v-815l131 -43v-33h-426z" />
<glyph unicode="s" horiz-adv-x="940" d="M143 115v106l144 47l51 -153h295v420l-326 -111l-164 164v278l490 164l164 -164l-52 -155l-112 39v116h-326v-278h326l164 -53v-420l-490 -164z" />
<glyph unicode="t" horiz-adv-x="665" d="M51 866v33l197 66l65 196h33v-164l293 -98v-33h-293v-784h137v121l119 41l43 -129l-164 -164l-299 102v813h-131z" />
<glyph unicode="u" horiz-adv-x="1017" d="M51 948v33h426v-33l-131 -43v-790h326v790l-129 43v33h424v-33l-131 -43v-823h131v-33l-295 -98v108l-326 -108l-164 164v790z" />
<glyph unicode="v" horiz-adv-x="960" d="M0 948v33h426v-33l-123 -41l152 -465v-219h18l219 674l-155 51v33h424v-33l-173 -59l-290 -889h-74l-293 905z" />
<glyph unicode="w" horiz-adv-x="1466" d="M0 948v33h428v-33l-123 -41l150 -463v-221h20l195 596l-29 86l-131 43v33h428v-33l-123 -41l152 -467v-217h18l221 674l-157 51v33h417v-33l-161 -57l-295 -891h-74l-170 541v219h-21l-245 -760h-74l-295 905z" />
<glyph unicode="x" horiz-adv-x="915" d="M0 0v33l137 45l238 426l-223 407l-113 37v33h360v-33l-82 -28l119 -220v-79h19l37 116l96 176l-105 35v33h348v-33l-137 -47l-184 -332l274 -493l131 -43v-33h-413v33l106 35l-159 301v77h-17l-39 -116l-137 -254l129 -43v-33h-385z" />
<glyph unicode="y" horiz-adv-x="976" d="M0 948v33h432v-33l-123 -41l156 -489v-219h18l226 698l-156 51v33h424v-33l-172 -57l-432 -1325h-242v33l174 59l117 354l-291 893z" />
<glyph unicode="z" horiz-adv-x="811" d="M41 0v68l469 821l-305 -2l-111 -146l-31 9l76 231h588v-33l-483 -856h387l108 148l31 -11l-74 -229h-655z" />
<glyph unicode="{" horiz-adv-x="587" d="M123 690l106 191v188l121 365l115 39v-33l-86 -88v-322l-121 -340l121 -346v-483l86 -88v-33l-115 37l-121 534v187z" />
<glyph unicode="|" horiz-adv-x="1019" d="M449 -512v2048h122v-2048h-122z" />
<glyph unicode="}" horiz-adv-x="587" d="M123 -227l88 88v483l119 346l-119 340v322l-88 88v33l115 -39l120 -365v-188l107 -191l-107 -192v-187l-120 -534l-115 -37v33z" />
<glyph unicode="~" horiz-adv-x="1071" d="M129 1198v33l242 135l340 -80l96 31h145v-33l-243 -135l-340 80l-97 -31h-143z" />
<glyph unicode="&#xa2;" horiz-adv-x="1058" d="M217 115v751l283 95v92l96 28v-88l111 37l163 -164l-43 -129l-116 39v90h-115v-751h115l43 129l116 -39v-90l-274 -92v-84l-96 -31v84l-119 -41zM381 115h119v751h-119v-751z" />
<glyph unicode="&#xa3;" horiz-adv-x="1333" d="M217 557v33l168 57v90h-168v33l168 57v68l123 365l237 79h181l131 -133v-229h-33l-78 229h-381v-379h529v-28l-183 -62h-346v-90h529v-31l-183 -59h-346v-420h430l115 340h37v-368l-328 -109h-567v33l133 45v479h-168z" />
<glyph unicode="&#xa5;" horiz-adv-x="1142" d="M51 1307v32h445v-32l-121 -39l131 -303h180l141 297l-133 45v32h402v-32l-150 -50l-141 -292h289v-29l-183 -62h-149l-82 -165h393v-29l-182 -62h-227v-540l135 -45v-33h-455v33l141 45v540h-397v33l170 58h182l-73 165h-299v33l170 58h88l-133 295zM545 709h22l78 165 h-100v-165z" />
<glyph unicode="&#xa9;" horiz-adv-x="1019" d="M199 827v551l43 138h536l70 -66v-551l-43 -137h-537zM258 813l528 2v651h-528v-653zM373 973v248l45 135l88 28h96l49 -49v-84h-12l-29 84h-172v-372h174l31 94h12v-111l-120 -39h-97z" />
<glyph unicode="&#xad;" horiz-adv-x="720" d="M35 602v31l313 106h342v-30l-328 -107h-327z" />
<glyph unicode="&#xae;" horiz-adv-x="1019" d="M182 827v551l43 138h537l69 -66v-551l-43 -137h-536zM244 813l528 2v651h-528v-653zM332 913v13l49 14v399l-49 17v12h252l59 -59v-105l-70 -67l78 -195l47 -16v-13h-110l-53 172v60h-91v-203l52 -16v-13h-164zM444 1178h134v153h-134v-153z" />
<glyph unicode="&#xb4;" horiz-adv-x="899" d="M125 1204v29l324 106h301v-32l-312 -103h-313z" />
<glyph unicode="&#x2000;" horiz-adv-x="804" />
<glyph unicode="&#x2001;" horiz-adv-x="1611" />
<glyph unicode="&#x2002;" horiz-adv-x="804" />
<glyph unicode="&#x2003;" horiz-adv-x="1611" />
<glyph unicode="&#x2004;" horiz-adv-x="536" />
<glyph unicode="&#x2005;" horiz-adv-x="401" />
<glyph unicode="&#x2006;" horiz-adv-x="268" />
<glyph unicode="&#x2007;" horiz-adv-x="268" />
<glyph unicode="&#x2008;" horiz-adv-x="200" />
<glyph unicode="&#x2009;" horiz-adv-x="321" />
<glyph unicode="&#x200a;" horiz-adv-x="88" />
<glyph unicode="&#x2010;" horiz-adv-x="720" d="M35 602v31l313 106h342v-30l-328 -107h-327z" />
<glyph unicode="&#x2011;" horiz-adv-x="720" d="M35 602v31l313 106h342v-30l-328 -107h-327z" />
<glyph unicode="&#x2012;" horiz-adv-x="720" d="M35 602v31l313 106h342v-30l-328 -107h-327z" />
<glyph unicode="&#x2013;" horiz-adv-x="1144" d="M78 600v33l313 106h684v-30l-325 -109h-672z" />
<glyph unicode="&#x2014;" horiz-adv-x="1486" d="M43 526v33l313 107h1088v-31l-326 -109h-1075z" />
<glyph unicode="&#x2018;" horiz-adv-x="538" d="M127 1221l133 391h31v-232l104 -28v-131h-268z" />
<glyph unicode="&#x2019;" horiz-adv-x="538" d="M143 1255v131h269l-133 -393h-31v234z" />
<glyph unicode="&#x201c;" horiz-adv-x="927" d="M127 1221l133 391h31v-232l104 -28v-131h-268zM508 1221l133 391h31v-232l102 -28v-131h-266z" />
<glyph unicode="&#x201d;" horiz-adv-x="927" d="M143 1255v131h269l-133 -393h-31v234zM526 1255v131h267l-134 -393h-30v234z" />
<glyph unicode="&#x2022;" horiz-adv-x="1361" d="M381 633l86 260l238 80l245 -244l-65 -209l-293 -98z" />
<glyph unicode="&#x2026;" horiz-adv-x="1488" d="M156 8v131h266l-64 -188zM623 8v131h266l-64 -188zM1090 8v131h268l-64 -188z" />
<glyph unicode="&#x202f;" horiz-adv-x="321" />
<glyph unicode="&#x205f;" horiz-adv-x="401" />
<glyph unicode="&#x2122;" horiz-adv-x="1398" d="M106 1130v256h279l156 -53v-203h-21l-65 197h-78v-661l74 -25v-18h-250v18l78 25v661h-86l-68 -197h-19zM539 623v18l77 25v677l-73 25v18h170l147 -464v-148l12 -2l199 614h170v-18l-76 -25v-677l74 -25v-18h-250v18l78 25v350l41 276l-12 4l-217 -694h-17l-133 420 l-39 272h-12v-628l74 -25v-18h-213z" />
<glyph unicode="&#xe000;" horiz-adv-x="980" d="M0 980h980v-980h-980v980z" />
<glyph unicode="&#xfb01;" horiz-adv-x="1087" d="M610 0v33l131 43v823h-131v33l295 98v-954l131 -43v-33h-426zM741 1231v119h215l-57 -170zM51 0v33l131 43v823h-131v33l131 43v407l267 88l90 -90v-30h-193v-375l131 -43v-33h-131v-823l131 -43v-33h-426z" />
<glyph unicode="&#xfb02;" horiz-adv-x="1087" d="M610 0v33l131 43v1265h-131v31l295 101v-1397l131 -43v-33h-426zM51 0v33l131 43v823h-131v33l131 43v407l267 88l90 -90v-30h-193v-375l131 -43v-33h-131v-823l131 -43v-33h-426z" />
<glyph unicode="&#xfb03;" horiz-adv-x="1646" d="M1169 0v33l131 43v823h-131v33l295 98v-954l131 -43v-33h-426zM1300 1231v119h215l-57 -170zM610 0v33l131 43v823h-131v33l131 43v407l267 88l90 -90v-30h-193v-375l131 -43v-33h-131v-823l131 -43v-33h-426zM51 0v33l131 43v823h-131v33l131 43v407l267 88l90 -90v-30 h-193v-375l131 -43v-33h-131v-823l131 -43v-33h-426z" />
<glyph unicode="&#xfb04;" horiz-adv-x="1646" d="M1169 0v33l131 43v1265h-131v31l295 101v-1397l131 -43v-33h-426zM610 0v33l131 43v823h-131v33l131 43v407l267 88l90 -90v-30h-193v-375l131 -43v-33h-131v-823l131 -43v-33h-426zM51 0v33l131 43v823h-131v33l131 43v407l267 88l90 -90v-30h-193v-375l131 -43v-33 h-131v-823l131 -43v-33h-426z" />
</font>
</defs>
</svg>
